<svg version="1.2" xmlns="http://www.w3.org/2000/svg" viewBox="0 0 512 512" width="512" height="512">
	<title>heart-like-original-svg</title>
	<style>
		.s0 { fill: #ffffff } 
		.s1 { fill: #e87b5a } 
		.s2 { fill: #3c4a53 } 
	</style>
	<g id="Layer">
		<path id="Layer" class="s0" d="m487.4 235.9c9.2 14.4 7.5 33.9-5.1 46.4-24.2 24.3-56.5 37.7-90.9 37.7h-44.7l36.2-36.4c24.3-24.6 30.9-60.3 19.7-90.9l52.8-52.8c9.2 14.4 7.5 33.9-5.1 46.4l-8 8-16 16 11.4 11.4 41.7-41.8c9.2 14.4 7.5 33.9-5.1 46.4l-8 8-24 24 11.4 11.4z"/>
		<path id="Layer" class="s0" d="m129.1 283.6l36.2 36.4h-44.7c-34.4 0-66.7-13.4-90.9-37.7-12.6-12.5-14.3-32-5.1-46.4l33.7 33.8 11.4-11.4-24-24-8-8c-12.6-12.5-14.3-32-5.1-46.4l41.7 41.8 11.4-11.4-16-16-8-8c-12.6-12.5-14.3-32-5.1-46.4l52.8 52.8c-11.2 30.6-4.6 66.3 19.7 90.9z"/>
	</g>
	<path id="Layer" class="s1" d="m371.5 272.3l-115.5 116.3-115.5-116.3c-27.3-27.5-27.3-72.2 0-99.7 13.2-13.3 30.7-20.6 49.4-20.6 18.7 0 36.2 7.3 49.4 20.6l11 11.1c3 3 8.4 3 11.4 0l11-11.1c13.2-13.3 30.7-20.6 49.4-20.6 18.7 0 36.2 7.3 49.4 20.6 27.3 27.5 27.3 72.2 0 99.7z"/>
	<path id="Layer" fill-rule="evenodd" class="s0" d="m112 56c0-16.7 54.8-40 144-40 89.2 0 144 23.3 144 40 0 16.7-54.8 40-144 40-89.2 0-144-23.3-144-40zm24 0c0 9.8 11.1 15.2 39.7 19.2 21.5 3.1 50 4.8 80.3 4.8 30.3 0 58.8-1.7 80.3-4.8 28.6-4 39.7-9.4 39.7-19.2 0-9.8-11.1-15.2-39.7-19.2-21.5-3.1-50-4.8-80.3-4.8-30.3 0-58.8 1.7-80.3 4.8-28.6 4-39.7 9.4-39.7 19.2z"/>
	<g id="Layer">
		<path id="Layer" fill-rule="evenodd" class="s2" d="m493.7 293.7c-27.3 27.3-63.7 42.3-102.3 42.3h-60.6l-69.1 69.6c-1.5 1.6-3.6 2.4-5.7 2.4-2.1 0-4.2-0.8-5.7-2.4l-69.1-69.6h-60.6c-38.6 0-75-15-102.3-42.3-19.7-19.8-20.6-51.2-2.9-72.1-8.7-19.5-5.1-43.3 10.9-59.3 2.3-2.2 5.7-2.8 8.5-1.8-0.1-13.8 5-27.6 15.5-38.2 3.2-3.1 8.2-3.1 11.4 0l55 55.1c3.5-5.7 7.5-11.1 12.4-16.1 16.3-16.3 37.8-25.3 60.8-25.3 23 0 44.5 9 60.8 25.3l5.3 5.4 5.3-5.4c16.3-16.3 37.9-25.3 60.8-25.3q0 0 0 0c23 0 44.5 9 60.8 25.3 4.9 5 8.9 10.4 12.4 16.1l55.1-55.1c3.1-3.1 8.1-3.1 11.3 0 10.5 10.6 15.7 24.4 15.5 38.2 2.9-1 6.2-0.4 8.5 1.8 16 16 19.6 39.8 10.9 59.3 17.7 20.9 16.8 52.3-2.9 72.1zm-328.4 26.3l-36.1-36.4c-24.4-24.6-31-60.3-19.8-90.9l-52.8-52.8c-9.2 14.4-7.5 33.9 5.1 46.4l24 24-11.3 11.4-41.8-41.8c-9.2 14.4-7.5 33.9 5.1 46.4l32 32-11.3 11.4-33.8-33.8c-9.2 14.4-7.5 33.9 5.1 46.4 24.2 24.3 56.5 37.7 90.9 37.7zm206.2-47.7c27.3-27.5 27.3-72.2 0-99.7-13.2-13.3-30.8-20.6-49.4-20.6-18.7 0-36.2 7.3-49.4 20.6l-11 11.1c-3 3-8.4 3-11.4 0l-11-11.1c-13.2-13.3-30.8-20.6-49.4-20.6-18.7 0-36.2 7.3-49.4 20.6-27.3 27.5-27.3 72.2 0 99.7l115.5 116.3zm115.9-36.3l-33.8 33.7-11.3-11.3 32-32c12.6-12.6 14.3-32 5.1-46.4l-41.8 41.7-11.3-11.3 24-24c12.6-12.6 14.3-32 5.1-46.4l-52.8 52.7c11.1 30.6 4.6 66.4-19.8 90.9l-36.1 36.4h44.7c34.3 0 66.6-13.3 90.9-37.6 12.6-12.6 14.3-32 5.1-46.4z"/>
		<path id="Layer" fill-rule="evenodd" class="s2" d="m96 56c0-36.4 82.4-56 160-56 77.6 0 160 19.6 160 56 0 36.4-82.4 56-160 56-77.6 0-160-19.6-160-56zm16 0c0 16.7 54.8 40 144 40 89.2 0 144-23.3 144-40 0-16.7-54.8-40-144-40-89.2 0-144 23.3-144 40z"/>
		<path id="Layer" fill-rule="evenodd" class="s2" d="m492-194c0-9.8 11.1-15.2 39.7-19.2 21.5-3.1 50-4.8 80.3-4.8 30.3 0 58.8 1.7 80.3 4.8 28.6 4 39.7 9.4 39.7 19.2 0 9.8-11.1 15.2-39.7 19.2-21.5 3.1-50 4.8-80.3 4.8-30.3 0-58.8-1.7-80.3-4.8-28.6-4-39.7-9.4-39.7-19.2zm23.9 0c14.9 3.8 47.2 8 96.1 8 48.9 0 81.2-4.2 96.1-8-14.9-3.8-47.2-8-96.1-8-48.9 0-81.2 4.2-96.1 8z"/>
	</g>
	<g id="Layer">
	</g>
	<g id="Layer">
	</g>
	<g id="Layer">
	</g>
	<g id="Layer">
	</g>
	<g id="Layer">
	</g>
	<g id="Layer">
	</g>
	<g id="Layer">
	</g>
	<g id="Layer">
	</g>
	<g id="Layer">
	</g>
	<g id="Layer">
	</g>
	<g id="Layer">
	</g>
	<g id="Layer">
	</g>
	<g id="Layer">
	</g>
	<g id="Layer">
	</g>
	<g id="Layer">
	</g>
</svg>