<?xml version="1.0" encoding="iso-8859-1"?>
<!-- Generator: Adobe Illustrator 19.0.0, SVG Export Plug-In . SVG Version: 6.00 Build 0)  -->
<svg version="1.1" id="Layer_1" xmlns="http://www.w3.org/2000/svg" xmlns:xlink="http://www.w3.org/1999/xlink" x="0px" y="0px"
	 viewBox="0 0 512 512" style="enable-background:new 0 0 512 512;" xml:space="preserve">
<g>
	<path style="fill:#FFFFFF;" d="M453.656,269.656l-11.312-11.312l24-24l8-8c12.584-12.584,14.264-32.008,5.048-46.416
		l-41.736,41.728l-11.312-11.312l16-16l8-8c12.584-12.584,14.264-32.008,5.048-46.416l-52.752,52.744
		c11.128,30.632,4.592,66.36-19.784,90.904L346.704,320h44.728c34.344,0,66.632-13.376,90.912-37.656
		c12.584-12.584,14.264-32.008,5.048-46.416L453.656,269.656z"/>
	<path style="fill:#FFFFFF;" d="M109.36,192.672l-52.752-52.744c-9.216,14.408-7.536,33.832,5.048,46.416l8,8l16,16l-11.312,11.312
		l-41.736-41.728c-9.216,14.408-7.536,33.832,5.048,46.416l8,8l24,24l-11.312,11.312l-33.736-33.728
		c-9.216,14.408-7.536,33.832,5.048,46.416C53.936,306.624,86.232,320,120.576,320h44.728l-36.16-36.424
		C104.768,259.04,98.232,223.304,109.36,192.672z"/>
</g>
<path style="fill:#E87B5A;" d="M371.504,172.616c-13.2-13.288-30.736-20.616-49.4-20.616s-36.208,7.32-49.408,20.616l-11.016,11.096
	c-3,3.024-8.36,3.024-11.36,0l-11.016-11.096C226.112,159.32,208.56,152,189.904,152c-18.664,0-36.2,7.328-49.4,20.616
	c-27.296,27.488-27.296,72.2,0,99.688L256.008,388.64l115.496-116.336C398.8,244.824,398.8,200.104,371.504,172.616z"/>
<path style="fill:#FFFFFF;" d="M256,96c89.216,0,144-23.296,144-40s-54.784-40-144-40S112,39.296,112,56S166.784,96,256,96z
	 M175.672,36.768C197.192,33.688,225.72,32,256,32s58.816,1.688,80.328,4.768C364.88,40.848,376,46.24,376,56
	s-11.128,15.152-39.672,19.232C314.816,78.312,286.28,80,256,80s-58.808-1.688-80.328-4.768C147.128,71.152,136,65.76,136,56
	S147.128,40.848,175.672,36.768z"/>
<g>
	<path style="fill:#3C4A53;" d="M496.616,221.616c8.664-19.552,5.048-43.272-10.952-59.272c-2.288-2.288-5.608-2.864-8.448-1.8
		c0.144-13.816-5.024-27.68-15.552-38.2c-3.128-3.128-8.184-3.128-11.312,0l-55.04,55.04c-3.464-5.696-7.552-11.112-12.448-16.04
		C366.632,145,345.064,136,322.112,136c-0.008,0-0.008,0-0.008,0c-22.952,0-44.536,9-60.768,25.344L256,166.72l-5.336-5.376
		C234.432,145,212.856,136,189.896,136c-22.952,0-44.52,9-60.752,25.344c-4.896,4.928-8.984,10.344-12.448,16.04l-55.04-55.04
		c-3.128-3.128-8.184-3.128-11.312,0c-10.52,10.52-15.688,24.384-15.552,38.2c-2.84-1.064-6.16-0.488-8.448,1.8
		c-16.008,16-19.624,39.72-10.96,59.272c-17.72,20.904-16.76,52.328,2.96,72.04C45.64,320.96,81.952,336,120.576,336h60.616
		l69.136,69.632c1.504,1.52,3.544,2.368,5.672,2.368c2.136,0,4.168-0.848,5.68-2.368L330.816,336h60.616
		c38.616,0,74.928-15.04,102.224-42.344C513.376,273.944,514.336,242.512,496.616,221.616z M120.576,320
		c-34.344,0-66.632-13.376-90.912-37.656C17.08,269.76,15.4,250.336,24.616,235.928l33.736,33.728l11.312-11.312l-24-24l-8-8
		C25.08,213.76,23.4,194.336,32.616,179.928l41.736,41.728l11.312-11.312l-16-16l-8-8C49.08,173.76,47.4,154.336,56.616,139.928
		l52.752,52.744c-11.128,30.632-4.592,66.36,19.784,90.904L165.304,320H120.576z M256,388.648L140.504,272.304
		c-27.296-27.488-27.296-72.2,0-99.688C153.696,159.328,171.24,152,189.904,152c18.656,0,36.208,7.32,49.408,20.616l11.016,11.096
		c3,3.024,8.36,3.024,11.36,0l11.016-11.096C285.896,159.32,303.44,152,322.104,152s36.2,7.328,49.4,20.616
		c27.296,27.488,27.296,72.2,0,99.688L256,388.648z M482.344,282.344C458.064,306.624,425.776,320,391.432,320h-44.728l36.16-36.424
		c24.376-24.544,30.912-60.272,19.784-90.904l52.752-52.744c9.216,14.408,7.536,33.832-5.048,46.416l-8,8l-16,16l11.312,11.312
		l41.736-41.728c9.216,14.408,7.536,33.832-5.048,46.416l-8,8l-24,24l11.312,11.312l33.736-33.728
		C496.608,250.336,494.928,269.76,482.344,282.344z"/>
	<path style="fill:#3C4A53;" d="M256,464c-58.392,0-128,4.168-128,24s69.608,24,128,24s128-4.168,128-24S314.392,464,256,464z
		 M256,496c-52.232,0-86.816-4.184-103.104-8c16.288-3.816,50.864-8,103.104-8c52.232,0,86.816,4.184,103.104,8
		C342.816,491.816,308.24,496,256,496z"/>
	<path style="fill:#3C4A53;" d="M256,112c77.56,0,160-19.624,160-56S333.56,0,256,0S96,19.624,96,56S178.44,112,256,112z M256,16
		c89.216,0,144,23.296,144,40s-54.784,40-144,40S112,72.704,112,56S166.784,16,256,16z"/>
	<path style="fill:#3C4A53;" d="M175.672,75.232C197.192,78.312,225.72,80,256,80s58.816-1.688,80.328-4.768
		C364.88,71.152,376,65.76,376,56s-11.128-15.152-39.672-19.232C314.816,33.688,286.28,32,256,32s-58.808,1.688-80.328,4.768
		C147.128,40.848,136,46.24,136,56S147.128,71.152,175.672,75.232z M256,48c48.864,0,81.16,4.216,96.144,8
		c-14.976,3.784-47.272,8-96.144,8c-48.864,0-81.168-4.216-96.144-8C174.84,52.216,207.136,48,256,48z"/>
	<rect x="368" y="352" style="fill:#3C4A53;" width="16" height="16"/>
	<rect x="400" y="352" style="fill:#3C4A53;" width="16" height="16"/>
	<rect x="336" y="352" style="fill:#3C4A53;" width="16" height="16"/>
</g>
<g>
</g>
<g>
</g>
<g>
</g>
<g>
</g>
<g>
</g>
<g>
</g>
<g>
</g>
<g>
</g>
<g>
</g>
<g>
</g>
<g>
</g>
<g>
</g>
<g>
</g>
<g>
</g>
<g>
</g>
</svg>
